<svg width="256" height="256" viewBox="0 0 256 256" fill="none" xmlns="http://www.w3.org/2000/svg">
  <rect width="256" height="256" rx="56" fill="#0F172A"/>
  <rect x="20" y="20" width="216" height="216" rx="44" fill="url(#paint0_linear)"/>
  <path d="M128 54C133.523 54 138 58.4772 138 64V76H176C181.523 76 186 80.4772 186 86C186 91.5228 181.523 96 176 96H163.337L186.48 137.658C187.292 139.12 187.72 140.765 187.72 142.438C187.72 156.002 176.405 167 162.447 167C148.488 167 137.173 156.002 137.173 142.438C137.173 140.765 137.601 139.12 138.413 137.658L161.556 96H138V164H166C171.523 164 176 168.477 176 174C176 179.523 171.523 184 166 184H90C84.4772 184 80 179.523 80 174C80 168.477 84.4772 164 90 164H118V96H94.4439L117.587 137.658C118.399 139.12 118.827 140.765 118.827 142.438C118.827 156.002 107.512 167 93.5534 167C79.595 167 68.2798 156.002 68.2798 142.438C68.2798 140.765 68.708 139.12 69.52 137.658L92.6631 96H80C74.4772 96 70 91.5228 70 86C70 80.4772 74.4772 76 80 76H118V64C118 58.4772 122.477 54 128 54ZM93.5534 119.701L80.2978 143.562C80.7334 148.817 86.6925 153 93.5534 153C100.414 153 106.373 148.817 106.809 143.562L93.5534 119.701ZM162.447 119.701L149.191 143.562C149.627 148.817 155.586 153 162.447 153C169.308 153 175.267 148.817 175.702 143.562L162.447 119.701Z" fill="white"/>
  <circle cx="128" cy="64" r="10" fill="#BFDBFE"/>
  <defs>
    <linearGradient id="paint0_linear" x1="46" y1="34" x2="206" y2="224" gradientUnits="userSpaceOnUse">
      <stop stop-color="#2563EB"/>
      <stop offset="1" stop-color="#0EA5E9"/>
    </linearGradient>
  </defs>
</svg>
